<?xml version="1.0" encoding="utf-8"?>
<!--  Author: Wyatt Howe.  SVG Version: 6.00 Build 0)  -->
<svg version="1.1" id="Layer_1" xmlns="http://www.w3.org/2000/svg" xmlns:xlink="http://www.w3.org/1999/xlink" x="0px" y="0px"
	 viewBox="0 0 410.2 175.5" style="width: 300px; enable-background:new 0 0 410.2 175.5;" xml:space="preserve">
<style type="text/css">
	.st0{fill:none;stroke:#000000;stroke-width:4;stroke-miterlimit:10;}
	.st1{fill:none;}
	.st2{font-family:'Helvetica';}
	.st3{font-size:18px;}
	.st4{font-size:15px;}
	.st5{stroke:#000000;stroke-width:4;stroke-miterlimit:10;}
</style>
<path class="st0" d="M119.3,78h-42V14.7h42C166.6,15.3,165.3,78,119.3,78z"/>
<line class="st0" x1="75.3" y1="32.7" x2="23.3" y2="32.7"/>
<line class="st0" x1="75.3" y1="62.7" x2="23.3" y2="62.7"/>
<polyline class="st0" points="155.3,46.7 187.1,46.7 187.1,72.7 227.3,72.7 "/>
<path class="st0" d="M118.6,157.3h-42V94h42C166,94.7,164.6,157.3,118.6,157.3z"/>
<line class="st0" x1="74.6" y1="112" x2="22.6" y2="112"/>
<line class="st0" x1="74.6" y1="142" x2="22.6" y2="142"/>
<path class="st0" d="M271.3,118h-42V54.7h42C318.6,55.3,317.3,118,271.3,118z"/>
<polyline class="st0" points="227.3,102.7 187.1,102.7 187.1,126 154.6,126 "/>
<line class="st0" x1="387.2" y1="86.7" x2="335.2" y2="86.7"/>
<circle class="st0" cx="330.7" cy="86.8" r="3.8"/>
<rect x="35.8" y="9.7" class="st1" width="66.1" height="35.4"/>
<text transform="matrix(1 0 0 1 35.8094 23.8735)"><tspan x="0" y="0" class="st2 st3">W</tspan><tspan x="16.9" y="4" class="st2 st4">0</tspan></text>
<rect x="34.8" y="40.2" class="st1" width="66.1" height="35.4"/>
<text transform="matrix(1 0 0 1 34.8094 54.3735)"><tspan x="0" y="0" class="st2 st3">W</tspan><tspan x="16.9" y="4" class="st2 st4">1</tspan></text>
<rect x="35.8" y="89.2" class="st1" width="66.1" height="35.4"/>
<text transform="matrix(1 0 0 1 35.8094 103.3735)"><tspan x="0" y="0" class="st2 st3">W</tspan><tspan x="16.9" y="4" class="st2 st4">2</tspan></text>
<rect x="35.8" y="119.7" class="st1" width="66.1" height="35.4"/>
<text transform="matrix(1 0 0 1 35.8094 133.8735)"><tspan x="0" y="0" class="st2 st3">W</tspan><tspan x="16.9" y="4" class="st2 st4">3</tspan></text>
<rect x="174.3" y="26.2" class="st1" width="66.1" height="35.4"/>
<text transform="matrix(1 0 0 1 174.3094 40.3735)"><tspan x="0" y="0" class="st2 st3">W</tspan><tspan x="16.9" y="4" class="st2 st4">4</tspan></text>
<rect x="174.8" y="133.2" class="st1" width="66.1" height="35.4"/>
<text transform="matrix(1 0 0 1 174.8094 147.3735)"><tspan x="0" y="0" class="st2 st3">W</tspan><tspan x="16.9" y="4" class="st2 st4">5</tspan></text>
<line class="st0" x1="327.2" y1="86.7" x2="306.8" y2="86.7"/>
<rect x="306.3" y="60.7" class="st1" width="96.2" height="35.4"/>
<text transform="matrix(1 0 0 1 306.3055 74.8701)"><tspan x="0" y="0" class="st2 st3">W</tspan><tspan x="16.9" y="4" class="st2 st4">6     </tspan><tspan x="42.1" y="0" class="st2 st3">W</tspan><tspan x="59" y="4" class="st2 st4">7</tspan></text>
<circle class="st5" cx="23.3" cy="32.8" r="1.9"/>
<circle class="st5" cx="23.4" cy="63" r="1.9"/>
<circle class="st5" cx="23.1" cy="112" r="1.9"/>
<circle class="st5" cx="22.8" cy="142.3" r="1.9"/>
<circle class="st5" cx="387.3" cy="86.8" r="1.9"/>
</svg>
